<?xml version="1.0" encoding="UTF-8"?>
<svg width="24px" height="24px" viewBox="0 0 24 24" version="1.1" xmlns="http://www.w3.org/2000/svg" xmlns:xlink="http://www.w3.org/1999/xlink">
    <!-- Generator: Sketch 48.2 (47327) - http://www.bohemiancoding.com/sketch -->
    <title>icon-bullets</title>
    <desc>Created with Sketch.</desc>
    <defs></defs>
    <g id="Symbols" stroke="none" stroke-width="1" fill="none" fill-rule="evenodd">
        <g id="icon-bullets" fill="#188CFF">
            <path d="M2.25,11 C2.45312602,11 2.62890551,11.074218 2.77734375,11.2226562 C2.92578199,11.3710945 3,11.546874 3,11.75 L3,13.25 C3,13.453126 2.92578199,13.6289055 2.77734375,13.7773438 C2.62890551,13.925782 2.45312602,14 2.25,14 L0.75,14 C0.546873984,14 0.371094492,13.925782 0.22265625,13.7773438 C0.0742180078,13.6289055 0,13.453126 0,13.25 L0,11.75 C0,11.546874 0.0742180078,11.3710945 0.22265625,11.2226562 C0.371094492,11.074218 0.546873984,11 0.75,11 L2.25,11 Z M23.2608696,12 C23.4610517,12 23.6342837,12.0989573 23.7805707,12.296875 C23.9268576,12.4947927 24,12.7291653 24,13 C24,13.2708347 23.9268576,13.5052073 23.7805707,13.703125 C23.6342837,13.9010427 23.4610517,14 23.2608696,14 L7.73913043,14 C7.53894827,14 7.36571631,13.9010427 7.21942935,13.703125 C7.07314238,13.5052073 7,13.2708347 7,13 C7,12.7291653 7.07314238,12.4947927 7.21942935,12.296875 C7.36571631,12.0989573 7.53894827,12 7.73913043,12 L23.2608696,12 Z M2.25,17 C2.45312602,17 2.62890551,17.074218 2.77734375,17.2226562 C2.92578199,17.3710945 3,17.546874 3,17.75 L3,19.25 C3,19.453126 2.92578199,19.6289055 2.77734375,19.7773438 C2.62890551,19.925782 2.45312602,20 2.25,20 L0.75,20 C0.546873984,20 0.371094492,19.925782 0.22265625,19.7773438 C0.0742180078,19.6289055 0,19.453126 0,19.25 L0,17.75 C0,17.546874 0.0742180078,17.3710945 0.22265625,17.2226562 C0.371094492,17.074218 0.546873984,17 0.75,17 L2.25,17 Z M23.2608696,18 C23.4610517,18 23.6342837,18.0989573 23.7805707,18.296875 C23.9268576,18.4947927 24,18.7291653 24,19 C24,19.2708347 23.9268576,19.5052073 23.7805707,19.703125 C23.6342837,19.9010427 23.4610517,20 23.2608696,20 L7.73913043,20 C7.53894827,20 7.36571631,19.9010427 7.21942935,19.703125 C7.07314238,19.5052073 7,19.2708347 7,19 C7,18.7291653 7.07314238,18.4947927 7.21942935,18.296875 C7.36571631,18.0989573 7.53894827,18 7.73913043,18 L23.2608696,18 Z M2.25,5 C2.45312602,5 2.62890551,5.07421801 2.77734375,5.22265625 C2.92578199,5.37109449 3,5.54687398 3,5.75 L3,7.25 C3,7.45312602 2.92578199,7.62890551 2.77734375,7.77734375 C2.62890551,7.92578199 2.45312602,8 2.25,8 L0.75,8 C0.546873984,8 0.371094492,7.92578199 0.22265625,7.77734375 C0.0742180078,7.62890551 0,7.45312602 0,7.25 L0,5.75 C0,5.54687398 0.0742180078,5.37109449 0.22265625,5.22265625 C0.371094492,5.07421801 0.546873984,5 0.75,5 L2.25,5 Z M7.73913043,8 C7.53894827,8 7.36571631,7.90104266 7.21942935,7.703125 C7.07314238,7.50520734 7,7.27083469 7,7 C7,6.72916531 7.07314238,6.49479266 7.21942935,6.296875 C7.36571631,6.09895734 7.53894827,6 7.73913043,6 L23.2608696,6 C23.4610517,6 23.6342837,6.09895734 23.7805707,6.296875 C23.9268576,6.49479266 24,6.72916531 24,7 C24,7.27083469 23.9268576,7.50520734 23.7805707,7.703125 C23.6342837,7.90104266 23.4610517,8 23.2608696,8 L7.73913043,8 Z"></path>
        </g>
    </g>
</svg>