<svg height="24" viewBox="0 0 24 24" width="24" xmlns="http://www.w3.org/2000/svg"><g fill="none" fill-rule="evenodd" stroke="#188CFF" stroke-width="2" transform="translate(1 2)"><path d="m5.13890909 3.40872727v-3.40872727h16.86109091v14.4523636h-15.86109091"/><path d="m4.21890909 10.8189091h3.76452746c1.20147052 0 2.24371325-.82980658 2.51292705-2.00072728l.2217248-.96437129c.1237506-.53824179-.2122609-1.07489267-.75050267-1.19864328-.0199569-.00458842-.04005002-.00856275-.06025096-.01191738l-4.6395318-.77045365c-.21617074-.03589792-.4381485.0002034-.63180282.10275314l-4.10398362 2.17326649c-.32731051.17332743-.53201653.51336636-.53201653.88373722v7.28414063c0 .2801944.11755274.547536.32403833.7369367l3.27422472 3.0033112c.18445723.169195.42565902.2630632.67596167.2630632h4.91309551c2.92835977 0 5.30226437-2.3739046 5.30226437-5.3022644v-.4693369"/><path d="m22 5.52h-10.12"/></g></svg>