<?xml version="1.0" encoding="UTF-8"?>
<svg width="24px" height="24px" viewBox="0 0 24 24" version="1.1" xmlns="http://www.w3.org/2000/svg" xmlns:xlink="http://www.w3.org/1999/xlink">
    <!-- Generator: Sketch 48.2 (47327) - http://www.bohemiancoding.com/sketch -->
    <title>icon-select</title>
    <desc>Created with Sketch.</desc>
    <defs></defs>
    <g id="Symbols" stroke="none" stroke-width="1" fill="none" fill-rule="evenodd">
        <g id="icon-select" fill="#188CFF">
            <path d="M9.57142857,1.71428571 C8.62053571,1.71428571 7.85714286,2.47767857 7.85714286,3.42857143 L7.85714286,15.4285714 L5.83482143,12.7232143 C5.5,12.28125 4.96428571,12 4.40178571,12 C3.46428571,12 2.71428571,12.7901786 2.71428571,13.7142857 C2.71428571,14.0892857 2.83482143,14.4508929 3.0625,14.7455357 L8.20535714,21.6026786 C8.52678571,22.03125 9.03571429,22.2857143 9.57142857,22.2857143 L19.1875,22.2857143 C19.5758929,22.2857143 19.9241071,22.0178571 20.0178571,21.6428571 L21.25,16.7142857 C21.4642857,15.8571429 21.5714286,14.9866071 21.5714286,14.1160714 L21.5714286,11.2098214 C21.5714286,10.5 21.0223214,9.85714286 20.2857143,9.85714286 C19.5758929,9.85714286 19,10.4330357 19,11.1428571 L18.5714286,11.1428571 L18.5714286,10.3258929 C18.5714286,9.48214286 17.9285714,8.78571429 17.0714286,8.78571429 C16.2410714,8.78571429 15.5714286,9.45535714 15.5714286,10.2857143 L15.5714286,11.1428571 L15.1428571,11.1428571 L15.1428571,9.9375 C15.1428571,8.97321429 14.40625,8.14285714 13.4285714,8.14285714 C12.4776786,8.14285714 11.7142857,8.90625 11.7142857,9.85714286 L11.7142857,11.1428571 L11.2857143,11.1428571 L11.2857143,3.50892857 C11.2857143,2.54464286 10.5491071,1.71428571 9.57142857,1.71428571 Z M9.57142857,0 C11.4866071,0 13,1.60714286 13,3.50892857 L13,6.45535714 C13.1473214,6.44196429 13.28125,6.42857143 13.4285714,6.42857143 C14.2991071,6.42857143 15.1160714,6.76339286 15.7455357,7.35267857 C16.1607143,7.16517857 16.6160714,7.07142857 17.0714286,7.07142857 C18.0357143,7.07142857 18.9330357,7.5 19.5357143,8.23660714 C19.7901786,8.16964286 20.03125,8.14285714 20.2857143,8.14285714 C21.9732143,8.14285714 23.2857143,9.54910714 23.2857143,11.2098214 L23.2857143,14.1160714 C23.2857143,15.1205357 23.1651786,16.1383929 22.9107143,17.1294643 L21.6785714,22.0580357 C21.3973214,23.1964286 20.3660714,24 19.1875,24 L9.57142857,24 C8.5,24 7.46875,23.4776786 6.82589286,22.6339286 L1.68303571,15.7767857 C1.24107143,15.1875 1,14.4508929 1,13.7142857 C1,11.8392857 2.52678571,10.2857143 4.40178571,10.2857143 C5.01785714,10.2857143 5.62053571,10.4464286 6.14285714,10.7544643 L6.14285714,3.42857143 C6.14285714,1.54017857 7.68303571,0 9.57142857,0 Z M11.2857143,13.7142857 L11.2857143,18.8571429 L10.8571429,18.8571429 L10.8571429,13.7142857 L11.2857143,13.7142857 Z M14.7142857,13.7142857 L14.7142857,18.8571429 L14.2857143,18.8571429 L14.2857143,13.7142857 L14.7142857,13.7142857 Z M18.1428571,13.7142857 L18.1428571,18.8571429 L17.7142857,18.8571429 L17.7142857,13.7142857 L18.1428571,13.7142857 Z"></path>
        </g>
    </g>
</svg>