<?xml version="1.0" encoding="UTF-8"?>
<svg width="24px" height="24px" viewBox="0 0 24 24" version="1.1" xmlns="http://www.w3.org/2000/svg" xmlns:xlink="http://www.w3.org/1999/xlink">
    <!-- Generator: Sketch 48.2 (47327) - http://www.bohemiancoding.com/sketch -->
    <title>icon-rates</title>
    <desc>Created with Sketch.</desc>
    <defs></defs>
    <g id="Symbols" stroke="none" stroke-width="1" fill="none" fill-rule="evenodd">
        <g id="icon-rates" fill="#188CFF">
            <path d="M13.8568339,1.50293542 L5.49675567,12.6810176 L11.6493975,12.704501 L9.9585952,22.4970646 L18.3186735,10.4266145 L12.1660316,10.4031311 L13.8568339,1.50293542 Z M13.927284,0 C14.3343311,0.0156556556 14.6787503,0.168296008 14.9605521,0.457925636 C15.2423539,0.747555264 15.3832527,1.09588838 15.3832527,1.50293542 C15.3832527,1.56555804 15.3793389,1.62426587 15.371511,1.67906067 C15.3636832,1.73385546 15.3519417,1.79256329 15.336286,1.85518591 L13.9742508,8.92367906 L18.3186735,8.92367906 C18.6004753,8.92367906 18.8627036,8.99804231 19.1053662,9.14677104 C19.3480289,9.29549977 19.5319801,9.49510638 19.6572253,9.74559687 C19.7824706,9.99608736 19.8333507,10.2622295 19.8098672,10.5440313 C19.7863837,10.8258331 19.6963651,11.0841476 19.5398085,11.3189824 L11.1092801,23.3894325 C10.9527236,23.592956 10.7805139,23.7455964 10.5926461,23.8473581 C10.4047782,23.9491199 10.19343,24 9.9585952,24 C9.84900561,24 9.74333152,23.9921723 9.64156976,23.9765166 C9.539808,23.960861 9.44196162,23.9295501 9.34802768,23.8825832 C9.03491457,23.7416823 8.79225555,23.5185925 8.62004334,23.2133072 C8.44783113,22.908022 8.39303715,22.583172 8.45565978,22.2387476 L9.84117837,14.183953 L5.49675567,14.1604697 C5.21495387,14.1604697 4.95272557,14.0861064 4.71006291,13.9373777 C4.46740025,13.788649 4.28344905,13.5890423 4.15820381,13.3385519 C4.03295856,13.0880614 3.98207845,12.8219192 4.00556193,12.5401174 C4.02904541,12.2583156 4.11906408,12.0000012 4.27562064,11.7651663 L12.706149,0.634050881 C12.7218047,0.618395225 12.7335462,0.602739804 12.7413741,0.587084149 C12.7492019,0.571428493 12.7609435,0.555773072 12.7765991,0.540117417 C12.8235661,0.477494795 12.8744462,0.422700822 12.929241,0.375733855 C12.9840358,0.328766888 13.0427436,0.289628337 13.1053662,0.258317025 C13.1993002,0.180038748 13.2971465,0.12133092 13.3989083,0.0821917808 C13.5006701,0.0430526419 13.6141719,0.0156556556 13.7394171,0 L13.927284,0 Z" id="Energy---simple-line-icons"></path>
        </g>
    </g>
</svg>