<svg height="441" viewBox="0 0 739 441" width="739" xmlns="http://www.w3.org/2000/svg" xmlns:xlink="http://www.w3.org/1999/xlink"><linearGradient id="a" x1="0%" x2="100%" y1="-1.845148%" y2="100%"><stop offset="0" stop-color="#ffe991"/><stop offset=".524272941" stop-color="#ffcc78"/><stop offset="1" stop-color="#ffe991"/></linearGradient><path d="m707.123809 478.874436-13.805378-19.420191-3.425776 2.395786c-.285838.200578-.684859.130521-.88989-.157255l-1.763003-2.479396c-.204362-.288808-.136213-.683518.150481-.884273l3.42492-2.395609-3.202542-4.505433-.770978.539212c-.287028.20127-.687612.130198-.892644-.157578l-.77355-1.089349-2.133162 1.492543c-.286693.200755-.685194.131037-.89056-.156224l-.773029-1.08901-2.901758 2.030369c-.190781.134062-.440586.151382-.650205.047498l-2.436821-1.199951-1.796913 1.256549c-.190112.133031-.439917.15035-.651061.047675l-2.777454-1.371328c-.20251-.1-.338331-.298128-.356755-.521881-.018796-.225461.081642-.439445.266657-.569191l47.660881-33.343756c.18468-.12923.422537-.152109.629586-.057956.205484.093137.349119.28608.376473.50977l.368758 3.054285c.028176.231552-.073746.45923-.261811.591391l-1.80082 1.259143.323192 2.67953c.030222.230682-.072034.458875-.262481.592421l-2.901423 2.029855.773698 1.087979c.204697.288292.137069.683341-.15115.885303l-2.132492 1.491513.773885 1.088833c.204175.287954.137962.685387-.148731.886142l-.771647.540242 3.202691 4.504063 3.424064-2.395433c.288739-.201624.685193-.131036.891415.156048l1.761477 2.480604c.205366.287261.13826.682648-.149773.885465l-3.424064 2.395432 15.814158 22.246522 4.737332 6.664699c9.438434-2.240628 19.140449-4.435578 29.0891-6.579827l-1.123887-2.781917 3.902775-1.576823-4.575388-11.324482-3.902774 1.576823-1.959886-4.850887 3.902775-1.576823-4.576317-11.326781-3.902774 1.576823-1.962208-4.856633 3.902775-1.576823-4.575388-11.324482-3.902774 1.576823-1.960815-4.853185 3.902775-1.576824-11.112983-27.505597-3.902774 1.576823-1.96035-4.852036 5.519737-2.230119-1.095548-12.138216 7.640395 9.493926.555077-.224265-2.076468-22.947154 14.446747 17.949237.555076-.224266-1.097846-12.137287 7.642694 9.492997 5.519737-2.230118 1.96035 4.852036-3.905074 1.577752 11.112983 27.505598 3.905073-1.577752 1.960815 4.853185-3.905074 1.577752 4.575388 11.324482 3.905073-1.577752 1.962207 4.856633-3.905073 1.577752 4.576317 11.326781 3.905073-1.577752 1.959885 4.850887-3.905073 1.577752 4.575388 11.324482 3.905073-1.577752 1.96013 4.854799-3.903924 1.577288 1.686031 4.173074c3.135205-.602019 6.290609-1.199001 9.465749-1.79081 1.975711-5.428008 4.162113-12.369605 6.095975-20.678299l-.082618.019165c-.645259.14502-1.289051-.259703-1.435664-.906861l-1.258192-5.570075c-.146766-.645412.259703-1.289051.905912-1.434868l3.098308-.700225-1.275884-5.639367c-.14646-.648905.260653-1.289848.906861-1.435665l2.207096-.499301c1.160438-7.803419 2.041229-16.734565 2.327595-26.674931-.343603-.145314-.621495-.428286-.711222-.820606l-.772228-3.411656c-.609582.089195-1.205516-.289346-1.343944-.909394l-.945767-4.183461c-.145969-.644462.262246-1.287949.901317-1.43263l2.935922-.664284c-.343474-18.720382-2.888188-40.407336-9.33312-64.386016l-.462255.104723c-.646209.145817-1.286356-.260346-1.432325-.904809l-1.325686-5.864553c-.145664-.647954.257007-1.288407.904165-1.43502l4.23373-.957205-3.294374-14.566388c-.145172-.643512.257804-1.287457.902267-1.433426.647158-.146614 1.29334.260957 1.439462.903674l3.292474 14.567981 4.230238-.957511c.645259-.145019 1.291747.259059 1.437563.905268l1.324737 5.865349c.14597.644463-.262246 1.287949-.909404 1.434562l-.175865.039161c4.498862 24.420758 11.531348 45.092672 19.273457 62.138576l2.933073-.661894c.648108-.14741 1.287152.261296 1.432325.904809l.947513 4.183614c.139377.619251-.228534 1.214356-.82336 1.396341l.771278 3.412452c.087829.393914-.041027.770629-.289871 1.050627 4.535369 8.848969 9.170892 16.533056 13.574341 23.078621l2.208841-.499149c.646362-.147562 1.287458.257804 1.432478.903063l1.275578 5.64286 3.101004-.700869c.643513-.145172 1.290798.259856 1.435021.904165l1.258988 5.571025c.145817.646209-.261602 1.290645-.906064 1.436614l-.080872.019319c7.221904 9.052023 13.780268 15.630406 18.471309 19.901865 5.861487-.851206 11.769538-1.684541 17.721969-2.499359l-.020524-.848949 1.50542-3.401236-.547694-2.692407-1.375156-.228366-.522462-1.475068.718177-1.080654-1.455811-16.692214-.739592-1.000564-.486097-2.380178 1.130077-1.709635-1.914797-16.455674-3.041196-4.705892-.621469-3.041603 1.572099-3.9223-.394094-1.931632-1.944071-1.762689-2.412041-.019084-1.442103-3.01873 2.879325-12.028437-.918696-.963917-.435927-2.14136.586379-2.422517-5.325459-4.604948-.562273-2.406407-.03852-7.262545-3.805041-.663907-.316977-1.881482.390545-3.749724-2.586899.024268-2.967912-6.452996 1.413576-2.95176-.64214-2.098317 1.99621-4.080396-.816172-4.006612-2.114598-2.516183-2.496574-16.844765-1.757098-1.007464-.767136-3.772117-1.119578-.745999-.324199-1.586395.376454-.651673-.225839-1.10682-4.027134-3.064607-1.817771-8.925222 1.090265-1.647312-.328616-1.615444-2.474801.502018-.544045-2.664932 1.604051-.325985-.530888-2.607966-1.602878.326388-.541298-2.665297 4.05962-.825449-2.056334-2.700622-.329947-6.130645 1.495865-1.995307.592783-7.443685-1.660593-3.320747 2.988125 1.502129 1.48806 7.301536 1.171685-3.901555.85785-2.007872-1.302416-1.562723 3.197008.472896-.292808 2.742522 1.29453-1.254495-.408775 6.989237 1.065788-.993735-.327055 3.234116-.527809 2.922474.43635 1.46246-1.280206 3.379155 3.600084-.731987.541701 2.664125-1.606798.32635.531655 2.609541 1.60603-.327925.542873 2.664529-2.478355.504727.364533 1.789053 1.437383.953745 1.817367 8.926395-.9253 4.872561.800787 3.93708 7.765096 18.002101 1.205543 5.224797 2.62086-.248536.240666 1.193201 4.140376-1.581561-.068524-2.43172-7.26206-1.044116 8.085461-1.2863 1.237687-1.690936-9.825616-6.923974 11.76121 5.452374 3.150223-1.142512-1.05473-13.32274 3.541732 12.815746 3.472483.084028 8.457875-10.073505-6.392465 10.661458 1.965103 1.537901 9.405766-4.359317-8.224779 5.992967.799628 2.067335 10.993818-1.15531-11.132276 2.992711-.656557.993067.806122 2.40254.778527.510586.379439 1.867594-1.019228.207496 3.214505 5.17719.283134 1.378241-1.057327.215352 1.171468 5.738735 1.470117-.298691.368741 1.799677 4.868852.943687 7.201977 10.991519 1.727398-.35299 2.559607-5.126516 1.657016.742284-.133655-2.783182 15.488 6.419683.794613 1.423267-1.755867.934404.899236 1.903688-1.253113 2.341074 1.163996.773092.407461 2.007023-1.799235.363649.323027 1.585991-1.446966.296176.323392 1.588738-1.176716.238476-.723866 2.094644-1.517669.311158-3.660655 7.509462 1.209824 5.943335-1.207361 2.550841-1.863675.379477 10.500262 40.622263-2.414722.491244 3.591974 17.652246c11.816405-1.352502 23.772926-2.630785 35.8543-3.830323l-10.064801-103.74897-4.359502.435273c-.798717.080077-1.502985-.496565-1.580706-1.288678l-4.648111-47.920012c-.076818-.789632.503147-1.49809 1.301865-1.578167l4.359502-.435273-1.086432-11.205379c-.078066-.789178.507341-1.498212 1.304811-1.577835l3.504674-.35022-.652331-6.712098.004826-.041092c-.009623-.146811-.004171-.294896.033239-.440569l2.502852-10.115566c.14717-.597244.653932-1.033209 1.26595-1.09448l4.320962-.43248.189925-40.839575c.003691-.743084.568324-1.361671 1.308435-1.435864.740112-.074193 1.413342.421031 1.562005 1.147981l8.030533 40.019894 4.31971-.432025c.61327-.061726 1.19451.266102 1.45509.823063l4.39846 9.424958c.06438.138113.09622.283859.11469.431667l.01094.033947.65063 6.711312 3.50762-.349888c.79747-.079623 1.50184.501195 1.57991 1.290372l1.08598 11.204139 4.36449-.43709c.79622-.079169 1.50309.50074 1.57991 1.290372l4.64936 47.919558c.07647.792567-.50609 1.497758-1.30356 1.577382l-4.36325.436635 10.09819 104.093111c13.03277-1.082591 25.94982-2.05111 38.73193-2.907754l1.64469-15.535203c-8.9685-3.642435-14.7423-8.374898-15.39013-13.244528-.22112-.418891-.22636-.929328.05278-1.406645.12037-.229508.29525-.424767.52281-.564196.43841-.260784.9849-.263958 1.58521.08021 2.26445.604348 4.57191 1.060325 6.87596 1.314835 3.46673.38381 3.89248.093619 4.82988-.541037.66061-.451799 1.53686-1.043008 3.21853-1.648962l2.50425-23.642697c-8.96949-3.643611-14.74096-8.378039-15.39014-13.244528-.22093-.421049-.22598-.933644.05684-1.416067.11902-.226367.29587-.419275.51876-.554774.43957-.261766.98489-.263958 1.5801.076491 2.26194.608471 4.57603 1.062868 6.88106 1.318554 3.46692.381652 3.89248.093619 4.83123-.544178.66006-.445324 1.53767-1.039674 3.21718-1.645821l2.50327-23.643873c-8.96734-3.643417-14.73899-8.375687-15.38915-13.243352-.22094-.421049-.22599-.933644.05549-1.412926.11784-.225385.29371-.419468.5209-.554581.4378-.266276.98391-.265134 1.58754.078245 2.25899.604945 4.56995 1.057973 6.874 1.312484 3.46575.382634 3.89149.092443 4.83006-.543195.66043-.449641 1.53785-1.041833 3.21834-1.646805l2.50444-23.644855c-8.96967-3.641452-14.74114-8.37588-15.38897-13.24551-.22327-.419084-.22752-.928345.04928-1.403697.11822-.229701.29562-.429083.52515-.566161.43859-.262942.9849-.263959 1.59228.086281 2.25603.601418 4.56269 1.05406 6.8679 1.307588 3.47005.383021 3.8923.095777 4.82988-.541037.66258-.449447 1.53785-1.041832 3.22031-1.644453l1.97498-18.669878c-8.95232-3.501803-14.73691-8.018851-15.44087-12.636902-.22795-.415154-.24179-.926362.03711-1.413487.11489-.228911.29094-.425153.51519-.563792.429-.26489.9678-.279627 1.58293.056084 2.27023.587468 4.57977 1.031671 6.89457 1.287146 14.48983 1.601985 28.11482-3.454243 33.28226-12.298449l2.40518-22.709938c-1.74534-.794827-2.88122-2.623424-2.66842-4.635505.26473-2.506517 2.50648-4.317034 5.00806-4.040456 2.49414.274824 4.30642 2.533791 4.04072 5.039133-.21182 2.013257-1.70738 3.550365-3.57603 3.947086l-2.40384 22.706797c3.19411 9.768191 15.44735 17.681696 29.93933 19.283874 2.58215.284893 5.195.349632 7.76991.223944.44463-.117783.92009-.025118 1.27566.278614.28178.355829.44156.595967.47936.720416.13981.457267.03602.937264-.24787 1.292372-1.57531 4.428829-8.20543 7.626799-17.77669 9.107169l-1.97731 18.671844c1.61582 1.030038 2.27021 1.845531 2.76289 2.460581.55992.690672.80924 1.007707 4.09897 1.370204 2.57569.284313 5.17951.340631 7.74882.191607.44223-.127785.91941-.042577 1.28199.25526.28948.358694.45303.596996.49066.714905.15137.461566.05428.95195-.23115 1.312357-1.57945 4.680722-8.24051 8.089037-17.84722 9.705409l-2.5029 23.639556c1.61564 1.032196 2.26985 1.849847 2.76037 2.464704.55974.692831.80906 1.009866 4.10076 1.374713 2.57471.283139 5.17594.331613 7.75367.185519.44089-.124644.91609-.041787 1.27536.256839.29239.366929.45627.605623.49164.716081.15058.458232.05286.943124-.22844 1.306076-1.57749 4.683073-8.23874 8.093546-17.84956 9.707374l-2.50425 23.642697c1.61545 1.034354 2.27102 1.848864 2.76234 2.467055.55955.694989.80825 1.006532 4.09995 1.371379 2.56808.284718 5.17558.335929 7.75134.187484.43972-.123661.91708-.040611 1.27733.25919.2896.357256.45321.594838.49084.712748.15076.456073.05206.93979-.22476 1.300969-1.57201 4.682477-8.23597 8.099231-17.85343 9.714638l-2.50308 23.641715c1.61447 1.033178 2.27022 1.84553 2.76271 2.462739.55857.693813.80788 1.010848 4.09762 1.373344 2.58215.284893 5.18811.341403 7.76227.18629.43739-.121695.91026-.036873 1.26854.260577.2905.355162.45457.591697.4922.709607.15137.461565.05212.951756-.23017 1.313532-1.57847 4.681898-8.2407 8.091195-17.8482 9.704234l-.73916 6.979149c10.76353-.480595 21.4049-.878828 31.91144-1.196145.22151-.052324.45192-.084736.67999-.106624.87439-.045005 1.87008-.063068 2.74547-.10784.90268-.162972 1.80412-.325167 2.67874-.371182l.1451-.089937c2.56667-.401311 5.06544-1.060913 7.23437-2.413847 2.25627-1.215717 4.15525-3.001281 5.636-5.138786.74018-1.065605 1.27334-2.302441 1.71543-3.687993.29808-1.29111.24527-2.66429-.18694-4.000564-.40446-1.456494-1.10262-2.731794-2.32047-3.878075-1.24368-1.029869-2.66401-1.851523-4.13224-2.442683-.67742-.278768-.98378-1.092241-.70293-1.770148.10822-.468759.5405-.739268 1.06423-.867354.80288-.803195 1.90376-1.290717 3.13547-1.258547.99243-.017752 2.01949.343864 3.04803.703692.653.40295 1.41893.827715 2.06828 1.223439 1.47118-1.023471 3.19817-.996136 5.12915-.79827.73029.045165 1.43352.207519 2.13676.369874 1.77258-2.310618 3.10019-4.852723 4.28347-7.303648.25379-.560716.47929-1.003466.7316-1.562395.19945-.325327.42393-.768309.53239-1.238079.56114-1.358066 1.06748-2.478722 2.13149-3.345066.02705-.11719.02705-.11719.02705-.11719-.07228-.759433-.05381-1.373413.37183-2.14452.59508-.975669.93384-1.886013 1.41211-2.889712.3617-1.03274.7227-2.062449.96667-3.119178.46946-1.499479 1.03037-2.856536 1.49983-4.356014.58673-1.473469 1.14765-2.830525 1.6171-4.330004.60715-2.091257 1.35621-4.267865 2.07868-6.329304.30813-.796106.61378-1.590658.83046-2.529188.2265-.442516.33519-.913296.44341-1.382056.24397-1.056729.46158-1.999299 1.02983-2.858788.08117-.35157.16257-.70415.21645-.937519.24396-1.05673.43475-1.88312 1.32861-2.541872-.12639-.525054-.10815-1.138023.17145-1.815152.10846-.46977.24397-1.05673.38041-1.64773.30712-.79634.49651-1.616669.71342-2.556209.36248-1.031496.60691-2.090246.99497-3.237145.46969-1.500489 1.08371-3.092158 1.3201-4.645445.09933-.968813.407-1.762899.71335-2.560482.28061-.676896.58727-1.471215.75053-2.178395.01848-.61398.36077-1.028699.82438-1.416476 0 0 0 0 .11804.027253-.09075-.145454-.0637-.262643-.0637-.262643-.25504-1.049563-.4163-1.952973.17924-2.930663.3706-.532686.56022-1.354025.75054-2.178395.02706-.11719.05411-.23438.10845-.46977.46111-1.997279.94951-4.112758 1.55797-6.200518 1.02156-3.352315 1.92554-6.733904 2.23982-10.249505.04499-.733423.09052-1.464593-.00929-2.104816-.09857-.641-.48563-1.104925-.84633-1.683009-.59502-.631114-.87355-1.560534-.80127-2.412158.09987-.966559.52504-1.735646 1.15599-2.332724.14487-.088927.19945-.325327.22627-.441507.02729-.1182-.0637-.262643-.03688-.378823l.05434-.23539.11805.027254c.21714-.94055.34306-2.024533 1.2098-2.570369.86657-.540551 1.83195-.441113 2.80058-.341986.02683-.11618.02683-.11618.05411-.23438.02729-.1182.05411-.23438.05411-.23438l.43406-1.880089c.86834-3.761189 1.73668-7.522377 2.6316-11.398735.02706-.11719.05458-.236401.10869-.47078-.9681-1.70793-.61522-3.23645-.18116-5.116539.10845-.46977.33394-.91252.35242-1.526499.04498-.733424.65066-1.211836 1.38398-1.165973.49621-.008876.87562-.045782 1.37184-.054658.49622-.008875.87438-.045005 1.34354.06331l1.60117-6.935418s.02706-.11719.05411-.23438c.13551-.58696.27102-1.173919.75865-1.679585-.12616-.526064-.13474-1.022854.00077-1.609814l.24443-1.058749c.21668-.93853.4063-1.759869.62367-2.701429.24397-1.056729.69542-1.944249 1.67927-2.45879.0364-1.230214.39818-2.25868.78694-3.408609l.14813-.089238c.66913-1.825816 2.08573-2.612887 3.7364-3.345917.14409-.09017.40646-.154096.55032-.243256.18986-.822349.37948-1.643689.71389-2.558229.1628-.705159.32513-1.408299.4884-2.115479.16256-.704149.88427-1.155775 1.59154-.992488.81927.189142 1.26995.911436 1.10739 1.615585-.19032.82437-.35289 1.52852-.51545 2.232669-.30736.79735-.49698 1.61869-.65978 2.323849-.02706.11719-.02706.11719-.02706.11719.11704.027021.20726.17022.20726.17022 1.10012 1.122292 1.91073 2.421427 2.1749 3.970033.37888 1.571897.05328 2.982216-.62521 4.309999.33365.695274.55026 1.363527.50403 2.097728.09958.641233-.03594 1.228192-.1985 1.932342l-2.84875 12.339285c-.02705.11719-.05411.23438-.0814.35258-.05411.23438-.10822.46876-.19009.82336.11704.02702.35112.081061.46815.108081.11906.027486.2361.054507.2361.054507 1.61752.496871 2.65441 1.354499 2.10308 3.208579-.08116.351569-.16256.704149-.24373 1.055719-.2629 1.672729-.58873 3.084059-2.03215 3.98731-.02705.11719-.05411.234379-.05411.234379l-.05434.23539c-.16304.70617-.35266 1.52751-.51546 2.23267-.24443 1.058749-.48816 2.114469-.73259 3.173218-.27102 1.17392-.51545 2.23267-.78647 3.406589-.40723 1.763909-.69719 3.553829-1.221 5.288698.46916.108314.91104.334828 1.2361.533312.55837.251281.85615.567965 1.09857 1.119806.36071.578083.34301 1.193306.08922 1.754023-.27937.676119-.23461 1.554763-.28014 2.285932.01795.994824.0341 1.988171-.29985 2.90069-.10892.47179-.42439.77033-.83062.923416-1.3352.434491-2.28263 1.329876-2.93283 2.539691-.64966 1.212069-.97549 2.623398-1.30062 4.031697-.62391 2.702439-1.15729 5.551342-1.7812 8.253781-.50787 2.729226-1.0418 5.575875-1.54789 8.306577-.10846.46977-.21691.93954-.44341 1.382056-.08117.35157-.25302.56196-.45021.886742.08874.144988.15166.406388.24266.550831.15267.40662.16226.903643.0811 1.255213 0 0 0 0-.02776.120221-.21667.938529-.46064 1.995258-.67802 2.936818-.24396 1.05673-.34508 2.024067-.472 3.107816-.28795 1.790386-.6062 3.698273-1.01297 5.460162-.2442 1.057739-.46134 1.998289-.56121 2.964849-.0814.35258-.01847.61398-.07258.84836-.01941.618021-.03687 1.232233-.31749 1.90913-.05434.23539-.13574.58797-.33394.912519-.17115.207359-.34253.415729-.51291.624332.44992.721051.66435 1.394122.33188 2.304854-.41659 1.265876-.56956 2.467049-.75231 3.787976.00959.497023-.0081 1.112246-.11633 1.581006-.29073 1.788676-.46311 3.607869-.72532 5.277568-.09987.96656-.17168 1.816163-.36153 2.638513-.04747.734978-.12005 1.583337-.28285 2.288497-.1798 1.317352-.38883 2.756712-.48035 4.221072-.12165 1.083904-.27967 2.283912-.40349 3.372635-.16387 2.311709-.44471 4.600672-.46325 6.821435.08975.14522.0627.26241.03564.3796-.00989 1.11077-.01869 2.226047-.84986 3.147209.5763 1.246104.56766 2.356097.5035 3.706531l-.05411.234379c.02598 1.48936.02491 3.09591.0505 4.591564.02699 1.489593.05297 2.978953.2001 4.500539l.11704.02702c.00858.49679-.00912 1.112013-.23538 1.553519 0 0 0 0-.02729.1182.56015.252758 1.23633.532302 1.82253.667636 1.05535.243649 2.08645.606196 3.06064 1.201414.74011.541178 1.36094 1.055879 1.90169 1.926657.14487-.088926.37894-.034886.52303-.125055 1.75522-.094907 3.42359.167897 5.10412.930442.76694.424998 1.12586 1.001605 1.69584 1.750375.08951.146231.26971.433641.50479.487915.50379.487681.66528 1.390081.15161 2.01317-.4881.507686-1.27243.701175-1.80335.32641-.6693.220043-1.28178.203142-2.04316.274235-.2361-.054506-.49622.008876-.7313-.045398-1.7773.208987-3.59889 1.148367-4.86637 2.339106-1.02496.927702-2.04264 2.290014-2.26087 3.759789 172.37298.735066 294.47282 25.341124 298.03215 66.024467 4.84151 55.33877-211.47756 119.468551-483.16218 143.237875-271.684613 23.769324-495.853333-1.822769-500.694848-57.161538-2.668102-30.49655 61.829897-63.662915 165.745777-91.272879zm7.380329-1.934427c5.504663-1.423379 11.114365-2.831179 16.825194-4.222241l-18.921563-26.61851-13.242368 9.26384zm117.518151-25.101174c12.924341-2.273536 26.147407-4.461189 39.640962-6.554587-3.387121-3.613595-6.519546-7.487928-9.406829-11.493715-4.016622-1.192491-9.248568-1.214729-14.448042-.039367-5.196779 1.174718-9.914208 3.447126-13.025055 6.2516-.722474 3.975155-1.631106 7.940949-2.761012 11.836065z" fill="url(#a)" fill-rule="evenodd" transform="translate(-541 -196)"/></svg>