<?xml version="1.0" encoding="UTF-8"?>
<svg width="24px" height="24px" viewBox="0 0 24 24" version="1.1" xmlns="http://www.w3.org/2000/svg" xmlns:xlink="http://www.w3.org/1999/xlink">
    <!-- Generator: Sketch 49.3 (51167) - http://www.bohemiancoding.com/sketch -->
    <title>icon-online</title>
    <desc>Created with Sketch.</desc>
    <defs></defs>
    <g id="icon-online" stroke="none" stroke-width="1" fill="none" fill-rule="evenodd">
        <path d="M16.759733,18.6863181 L18.5461624,18.6863181 C19.2150571,18.6863181 19.8227633,18.5150184 20.3692992,18.1724138 C20.9158351,17.8298092 21.3848701,17.3893242 21.7764182,16.8509455 C22.1679664,16.3125668 22.4697802,15.7089392 22.6818687,15.0400445 C22.8939573,14.3711498 23,13.7022651 23,13.0333704 C23,12.2992177 22.8531717,11.6099402 22.5595106,10.9655172 C22.2658495,10.3210943 21.8661501,9.75825231 21.3604004,9.27697442 C20.8546508,8.79569652 20.2754945,8.4123114 19.6229143,8.12680756 C18.9703341,7.84130373 18.2769781,7.69855395 17.5428254,7.69855395 L16.9799778,7.67408231 L16.8086763,7.13570634 C16.4008137,5.83054594 15.7441647,4.81498324 14.8387097,4.08898776 C13.9332546,3.36299229 12.7056066,3 11.1557286,3 C10.1768583,3 9.29588823,3.16722117 8.51279199,3.50166852 C7.72969575,3.83611587 7.05673251,4.30107229 6.49388209,4.89655172 C5.93103167,5.49203116 5.49870377,6.20170148 5.19688543,7.02558398 C4.89506709,7.84946648 4.74416018,8.73451511 4.74416018,9.6807564 L4.81757508,10.4149055 L4.10789766,10.5372636 C3.2432289,10.6840942 2.50908719,11.1490506 1.9054505,11.9321468 C1.30181382,12.7152431 1,13.5962131 1,14.5750834 C1,15.6844698 1.37114942,16.6470111 2.1134594,17.4627364 C2.85576938,18.2784616 3.73266087,18.6863181 4.74416018,18.6863181 L6.99555061,18.6863181" id="cloud-upload---simple-line-icons" stroke="#188CFF" stroke-width="2" stroke-linecap="round"></path>
        <path d="M16.0632505,14.0594296 C16.1930047,14.1891837 16.2578807,14.3421059 16.2578807,14.5182007 C16.2578807,14.6942956 16.1930047,14.8564858 16.0632505,15.0047762 L15.840816,15.1437978 C15.7295982,15.2735519 15.5859441,15.3245259 15.4098492,15.2967215 C15.2337544,15.268917 15.0808322,15.1901389 14.9510781,15.0603848 L13.0047762,12.8916485 L13.0047762,21.844637 C13.0047762,22.1041452 12.9167301,22.3173095 12.7406352,22.4841362 C12.5645404,22.6509629 12.3560101,22.734375 12.1150382,22.734375 C11.85553,22.734375 11.6423657,22.6509629 11.475539,22.4841362 C11.3087123,22.3173095 11.2253002,22.1041452 11.2253002,21.844637 L11.2253002,12.8916485 L9.33460699,15.0047762 C9.20485288,15.1345303 9.05193069,15.2133084 8.87583584,15.2411129 C8.69974098,15.2689173 8.54681879,15.2179432 8.41706468,15.0881891 L8.19463019,14.9491676 C8.06487608,14.8008772 8,14.638687 8,14.4625921 C8,14.2864973 8.06487608,14.1335751 8.19463019,14.003821 L11.4199304,10.444869 L11.6423649,10.1946302 C11.6979738,10.120485 11.7674839,10.0695109 11.8508972,10.0417065 C11.9343106,10.013902 12.0130887,10 12.0872339,10 C12.1799154,10 12.2633275,10.013902 12.3374727,10.0417065 C12.4116179,10.0695109 12.485762,10.120485 12.5599072,10.1946302 L12.7823417,10.4170647 L16.0632505,14.0594296 Z" id="Path" fill="#188CFF"></path>
    </g>
</svg>